<svg aria-hidden="true" style="position: absolute; width: 0; height: 0; overflow: hidden;" version="1.1" xmlns="http://www.w3.org/2000/svg" xmlns:xlink="http://www.w3.org/1999/xlink">
<defs>
<symbol id="icon-logo" viewBox="0 0 91 32">
<path fill="#111518" style="fill: var(--color2, #111518)" d="M13.608 4.836v12.942h-3.661v-5.047h-4.992v5.047h-3.661v-12.942h3.661v4.863h4.992v-4.863h3.661zM27.006 12.786c0 0.025-0.018 0.314-0.055 0.869h-7.285c0.148 0.518 0.431 0.918 0.851 1.202 0.431 0.271 0.968 0.407 1.609 0.407 0.481 0 0.894-0.068 1.239-0.203 0.357-0.136 0.715-0.357 1.072-0.666l1.849 1.923c-0.974 1.085-2.397 1.627-4.271 1.627-1.171 0-2.2-0.222-3.088-0.666s-1.578-1.060-2.071-1.849c-0.481-0.789-0.721-1.683-0.721-2.681 0-0.986 0.234-1.867 0.703-2.644 0.481-0.789 1.14-1.405 1.978-1.849s1.781-0.666 2.829-0.666c0.998 0 1.904 0.21 2.718 0.629 0.814 0.407 1.454 1.005 1.923 1.793 0.481 0.777 0.721 1.701 0.721 2.773zM21.663 10.086c-0.542 0-0.998 0.154-1.368 0.462-0.357 0.308-0.586 0.727-0.684 1.257h4.105c-0.099-0.53-0.333-0.949-0.703-1.257-0.357-0.308-0.807-0.462-1.35-0.462zM29.365 4.059h3.513v13.719h-3.513v-13.719zM35.901 4.059h3.513v13.719h-3.513v-13.719z"></path>
<path fill="#ff6b09" style="fill: var(--color1, #ff6b09)" d="M5.547 26.596v3.982h-0.922v-1.633h-1.809v1.633h-0.922v-3.982h0.922v1.57h1.809v-1.57h0.922zM10.596 29.838v0.74h-3.083v-3.982h3.009v0.74h-2.094v0.865h1.849v0.717h-1.849v0.922h2.167zM12.354 26.596h0.922v3.231h1.997v0.751h-2.918v-3.982zM16.811 26.596h0.922v3.231h1.997v0.751h-2.918v-3.982zM21.268 26.596h0.922v3.982h-0.922v-3.982zM25.467 30.646c-0.315 0-0.62-0.042-0.916-0.125-0.292-0.087-0.527-0.199-0.705-0.336l0.313-0.694c0.171 0.125 0.374 0.226 0.609 0.302s0.47 0.114 0.705 0.114c0.262 0 0.455-0.038 0.58-0.114 0.125-0.080 0.188-0.184 0.188-0.313 0-0.095-0.038-0.173-0.114-0.233-0.072-0.064-0.167-0.116-0.284-0.154-0.114-0.038-0.269-0.080-0.466-0.125-0.303-0.072-0.552-0.144-0.745-0.216s-0.36-0.188-0.501-0.347c-0.137-0.159-0.205-0.372-0.205-0.637 0-0.231 0.063-0.44 0.188-0.626 0.125-0.19 0.313-0.339 0.563-0.449 0.254-0.11 0.563-0.165 0.927-0.165 0.254 0 0.502 0.030 0.745 0.091s0.455 0.148 0.637 0.262l-0.284 0.7c-0.368-0.209-0.736-0.313-1.104-0.313-0.258 0-0.449 0.042-0.575 0.125-0.121 0.083-0.182 0.193-0.182 0.33s0.070 0.239 0.21 0.307c0.144 0.064 0.362 0.129 0.654 0.193 0.303 0.072 0.552 0.144 0.745 0.216s0.358 0.186 0.495 0.341c0.14 0.156 0.21 0.366 0.21 0.631 0 0.228-0.064 0.436-0.193 0.626-0.125 0.186-0.315 0.334-0.569 0.444s-0.563 0.165-0.927 0.165zM32.463 26.596v3.982h-0.922v-1.633h-1.809v1.633h-0.922v-3.982h0.922v1.57h1.809v-1.57h0.922z"></path>
<path fill="#111518" style="fill: var(--color2, #111518)" d="M40.148 29.838v0.74h-3.083v-3.982h3.009v0.74h-2.093v0.865h1.849v0.717h-1.849v0.922h2.167zM45.557 26.596v3.982h-0.757l-1.985-2.418v2.418h-0.91v-3.982h0.762l1.98 2.418v-2.418h0.91zM50.214 28.524h0.842v1.616c-0.216 0.163-0.467 0.288-0.751 0.375s-0.571 0.131-0.859 0.131c-0.413 0-0.785-0.087-1.115-0.262-0.33-0.178-0.59-0.423-0.779-0.734-0.186-0.315-0.279-0.669-0.279-1.064s0.093-0.747 0.279-1.058c0.19-0.315 0.451-0.559 0.785-0.734 0.334-0.178 0.709-0.267 1.126-0.267 0.349 0 0.666 0.059 0.95 0.176s0.523 0.288 0.717 0.512l-0.592 0.546c-0.284-0.3-0.628-0.449-1.030-0.449-0.254 0-0.48 0.053-0.677 0.159s-0.351 0.256-0.461 0.449c-0.11 0.193-0.165 0.415-0.165 0.666 0 0.247 0.055 0.466 0.165 0.66s0.262 0.345 0.455 0.455c0.197 0.106 0.421 0.159 0.671 0.159 0.266 0 0.504-0.057 0.717-0.171v-1.166zM52.936 26.596h0.922v3.231h1.997v0.751h-2.918v-3.982zM57.394 26.596h0.922v3.982h-0.922v-3.982zM61.593 30.646c-0.315 0-0.62-0.042-0.916-0.125-0.292-0.087-0.527-0.199-0.705-0.336l0.313-0.694c0.171 0.125 0.374 0.226 0.609 0.302s0.47 0.114 0.705 0.114c0.262 0 0.455-0.038 0.58-0.114 0.125-0.080 0.188-0.184 0.188-0.313 0-0.095-0.038-0.173-0.114-0.233-0.072-0.064-0.167-0.116-0.284-0.154-0.114-0.038-0.269-0.080-0.467-0.125-0.303-0.072-0.552-0.144-0.745-0.216s-0.36-0.188-0.501-0.347c-0.137-0.159-0.205-0.372-0.205-0.637 0-0.231 0.063-0.44 0.188-0.626 0.125-0.19 0.313-0.339 0.563-0.449 0.254-0.11 0.563-0.165 0.927-0.165 0.254 0 0.503 0.030 0.745 0.091s0.455 0.148 0.637 0.262l-0.284 0.7c-0.368-0.209-0.736-0.313-1.104-0.313-0.258 0-0.449 0.042-0.575 0.125-0.121 0.083-0.182 0.193-0.182 0.33s0.070 0.239 0.211 0.307c0.144 0.064 0.362 0.129 0.654 0.193 0.303 0.072 0.552 0.144 0.745 0.216s0.358 0.186 0.495 0.341c0.14 0.156 0.211 0.366 0.211 0.631 0 0.228-0.064 0.436-0.193 0.626-0.125 0.186-0.315 0.334-0.569 0.444s-0.563 0.165-0.927 0.165zM68.588 26.596v3.982h-0.922v-1.633h-1.809v1.633h-0.922v-3.982h0.922v1.57h1.809v-1.57h0.922z"></path>
<path fill="#111518" style="fill: var(--color2, #111518)" d="M74.263 14.949v2.829h-10.391v-12.942h10.15v2.829h-6.527v2.182h5.75v2.736h-5.75v2.367h6.767zM89.348 4.836v12.942h-3.014l-5.713-6.896v6.896h-3.587v-12.942h3.014l5.713 6.896v-6.896h3.587z"></path>
<path fill="#ff6b09" style="fill: var(--color1, #ff6b09)" d="M58.695 11.062c-0.189-0.423-0.45-0.84-0.831-1.322-0.962-1.209-1.255-3.905-1.258-3.931-0.013-0.129-0.104-0.236-0.225-0.275-0.124-0.039-0.258-0.003-0.346 0.094-1.147 1.283-0.665 3.265-0.404 4.057 0.072 0.217 0.15 0.472 0.205 0.731 0.424 2.091-0.394 3.038-0.587 3.229-0.186 0.052-0.313 0.026-0.43-0.1-0.404-0.443-0.538-1.894-0.349-3.785 0.039-0.385 0.029-0.731-0.026-1.054-0.399-2.324-1.86-3.815-2.233-4.338-1.023-1.513-1.128-4.031-1.131-4.053-0.003-0.12-0.072-0.226-0.179-0.278-0.104-0.052-0.231-0.045-0.329 0.023-1.708 1.16-1.561 3.956-1.323 5.518 0.055 0.362 0.163 0.731 0.349 1.196 0.662 1.665-0.13 3.814-0.137 3.834s-0.013 0.036-0.016 0.055c-0.101 0.53-0.27 0.847-0.46 0.847-0.020 0-0.039-0.003-0.062-0.010-0.231-0.048-0.352-0.294-0.355-0.507-0.013-2.757-2.78-3.685-2.81-3.694-0.124-0.039-0.261-0.003-0.345 0.097-0.088 0.1-0.104 0.239-0.046 0.356 0.033 0.068 0.137 0.365 0.065 1.416-0.062 0.944-0.235 1.878-0.512 2.773-0.658 2.146-0.554 4.179-0.548 4.276 0.506 5.505 8.423 6.469 13.122 3.368 0.515-0.339 0.935-0.727 1.245-1.154 1.734-2.392 0.714-5.64-0.046-7.366zM46.652 16.321c0.010 0.178-0.127 0.33-0.306 0.339h-0.020c-0.173 0-0.316-0.132-0.326-0.304-0.029-0.472-0.023-0.966 0.013-1.503 0.013-0.178 0.169-0.31 0.349-0.301 0.179 0.013 0.316 0.168 0.303 0.346-0.036 0.511-0.042 0.976-0.013 1.422zM46.811 13.457c-0.020 0.165-0.16 0.284-0.323 0.284-0.013 0-0.026 0-0.042-0.003-0.176-0.023-0.303-0.181-0.284-0.359l0.156-1.248c0.023-0.175 0.182-0.301 0.365-0.281 0.179 0.023 0.306 0.184 0.284 0.362l-0.156 1.244z"></path>
<path fill="#ff6b09" style="fill: var(--color1, #ff6b09)" d="M56.49 4.422c-0.178-0.027-0.3-0.192-0.272-0.368 0.020-0.131 0.138-0.804 0.458-1.142 0.123-0.13 0.329-0.137 0.461-0.015s0.138 0.327 0.015 0.457c-0.135 0.143-0.25 0.553-0.289 0.798-0.027 0.174-0.191 0.297-0.372 0.27z"></path>
<path fill="#ff6b09" style="fill: var(--color1, #ff6b09)" d="M44.608 6.032c-0.062-0.24-0.217-0.637-0.366-0.766-0.135-0.118-0.149-0.322-0.030-0.456s0.324-0.148 0.46-0.030c0.351 0.305 0.535 0.963 0.568 1.092 0.045 0.173-0.060 0.349-0.235 0.393-0.178 0.044-0.352-0.063-0.397-0.232z"></path>
</symbol>
<symbol id="icon-logo-white" viewBox="0 0 85 32">
<path fill="#fff" style="fill: var(--color1, #fff)" d="M11.933 4.686v12.542h-3.548v-4.892h-4.838v4.892h-3.548v-12.542h3.548v4.712h4.838v-4.712h3.548z"></path>
<path fill="#fff" style="fill: var(--color1, #fff)" d="M24.918 12.391c0 0.024-0.018 0.305-0.054 0.842h-7.060c0.143 0.502 0.418 0.89 0.824 1.165 0.418 0.263 0.938 0.394 1.559 0.394 0.466 0 0.866-0.066 1.2-0.197 0.346-0.131 0.693-0.346 1.039-0.645l1.792 1.863c-0.944 1.051-2.323 1.577-4.139 1.577-1.135 0-2.132-0.215-2.992-0.645s-1.529-1.027-2.007-1.792c-0.466-0.764-0.699-1.63-0.699-2.598 0-0.956 0.227-1.81 0.681-2.562 0.466-0.764 1.105-1.362 1.917-1.792s1.726-0.645 2.741-0.645c0.968 0 1.846 0.203 2.634 0.609 0.788 0.394 1.41 0.974 1.863 1.738 0.466 0.753 0.699 1.648 0.699 2.688zM19.739 9.775c-0.526 0-0.968 0.149-1.326 0.448-0.346 0.299-0.567 0.705-0.663 1.218h3.978c-0.096-0.514-0.323-0.92-0.681-1.218-0.346-0.299-0.782-0.448-1.308-0.448z"></path>
<path fill="#fff" style="fill: var(--color1, #fff)" d="M27.204 3.934h3.404v13.295h-3.404v-13.295z"></path>
<path fill="#fff" style="fill: var(--color1, #fff)" d="M33.538 3.934h3.404v13.295h-3.404v-13.295z"></path>
<path fill="#ff6b09" style="fill: var(--color2, #ff6b09)" d="M3.867 26.282v3.733h-0.864v-1.531h-1.696v1.531h-0.864v-3.733h0.864v1.472h1.696v-1.472h0.864zM8.601 29.322v0.693h-2.891v-3.733h2.821v0.693h-1.963v0.811h1.733v0.672h-1.733v0.864h2.032zM10.248 26.282h0.864v3.029h1.872v0.704h-2.736v-3.733zM14.427 26.282h0.864v3.029h1.872v0.704h-2.736v-3.733zM18.606 26.282h0.864v3.733h-0.864v-3.733zM22.542 30.080c-0.295 0-0.581-0.039-0.859-0.117-0.274-0.082-0.494-0.187-0.661-0.315l0.293-0.651c0.16 0.117 0.35 0.212 0.571 0.283s0.441 0.107 0.661 0.107c0.245 0 0.427-0.036 0.544-0.107 0.117-0.075 0.176-0.172 0.176-0.293 0-0.089-0.036-0.162-0.107-0.219-0.068-0.060-0.156-0.108-0.267-0.144-0.107-0.036-0.252-0.075-0.437-0.117-0.284-0.068-0.517-0.135-0.699-0.203s-0.338-0.176-0.469-0.325c-0.128-0.149-0.192-0.348-0.192-0.597 0-0.217 0.059-0.412 0.176-0.587 0.117-0.178 0.293-0.318 0.528-0.421 0.238-0.103 0.528-0.155 0.869-0.155 0.238 0 0.471 0.028 0.699 0.085s0.427 0.139 0.597 0.245l-0.267 0.656c-0.345-0.196-0.69-0.293-1.035-0.293-0.242 0-0.421 0.039-0.539 0.117-0.114 0.078-0.171 0.181-0.171 0.309s0.066 0.224 0.197 0.288c0.135 0.060 0.34 0.121 0.613 0.181 0.284 0.068 0.517 0.135 0.699 0.203s0.336 0.174 0.464 0.32c0.132 0.146 0.197 0.343 0.197 0.592 0 0.213-0.060 0.409-0.181 0.587-0.117 0.174-0.295 0.313-0.533 0.416s-0.528 0.155-0.869 0.155zM29.101 26.282v3.733h-0.864v-1.531h-1.696v1.531h-0.864v-3.733h0.864v1.472h1.696v-1.472h0.864z"></path>
<path fill="#fff" style="fill: var(--color1, #fff)" d="M36.305 29.322v0.693h-2.891v-3.733h2.821v0.693h-1.963v0.811h1.733v0.672h-1.733v0.864h2.032zM41.376 26.282v3.733h-0.709l-1.861-2.267v2.267h-0.853v-3.733h0.715l1.856 2.267v-2.267h0.853zM45.742 28.090h0.789v1.515c-0.203 0.153-0.437 0.27-0.704 0.352s-0.535 0.123-0.805 0.123c-0.388 0-0.736-0.082-1.045-0.245-0.309-0.167-0.553-0.396-0.731-0.688-0.174-0.295-0.261-0.628-0.261-0.997s0.087-0.7 0.261-0.992c0.178-0.295 0.423-0.524 0.736-0.688 0.313-0.167 0.665-0.251 1.056-0.251 0.327 0 0.624 0.055 0.891 0.165s0.491 0.27 0.672 0.48l-0.555 0.512c-0.267-0.281-0.588-0.421-0.965-0.421-0.238 0-0.45 0.050-0.635 0.149s-0.329 0.24-0.432 0.421-0.155 0.389-0.155 0.624c0 0.231 0.052 0.437 0.155 0.619s0.245 0.324 0.427 0.427c0.185 0.1 0.395 0.149 0.629 0.149 0.249 0 0.473-0.053 0.672-0.16v-1.093zM48.294 26.282h0.864v3.029h1.872v0.704h-2.736v-3.733zM52.473 26.282h0.864v3.733h-0.864v-3.733zM56.41 30.080c-0.295 0-0.581-0.039-0.859-0.117-0.274-0.082-0.494-0.187-0.661-0.315l0.293-0.651c0.16 0.117 0.35 0.212 0.571 0.283s0.441 0.107 0.661 0.107c0.245 0 0.427-0.036 0.544-0.107 0.117-0.075 0.176-0.172 0.176-0.293 0-0.089-0.036-0.162-0.107-0.219-0.068-0.060-0.156-0.108-0.267-0.144-0.107-0.036-0.252-0.075-0.437-0.117-0.284-0.068-0.517-0.135-0.699-0.203s-0.338-0.176-0.469-0.325c-0.128-0.149-0.192-0.348-0.192-0.597 0-0.217 0.059-0.412 0.176-0.587 0.117-0.178 0.293-0.318 0.528-0.421 0.238-0.103 0.528-0.155 0.869-0.155 0.238 0 0.471 0.028 0.699 0.085s0.427 0.139 0.597 0.245l-0.267 0.656c-0.345-0.196-0.69-0.293-1.035-0.293-0.242 0-0.421 0.039-0.539 0.117-0.114 0.078-0.171 0.181-0.171 0.309s0.066 0.224 0.197 0.288c0.135 0.060 0.34 0.121 0.613 0.181 0.284 0.068 0.517 0.135 0.699 0.203s0.336 0.174 0.464 0.32c0.132 0.146 0.197 0.343 0.197 0.592 0 0.213-0.060 0.409-0.181 0.587-0.117 0.174-0.295 0.313-0.533 0.416s-0.528 0.155-0.869 0.155zM62.968 26.282v3.733h-0.864v-1.531h-1.696v1.531h-0.864v-3.733h0.864v1.472h1.696v-1.472h0.864z"></path>
<path fill="#fff" style="fill: var(--color1, #fff)" d="M70.715 14.487v2.741h-10.070v-12.543h9.837v2.741h-6.325v2.114h5.572v2.652h-5.572v2.294h6.558z"></path>
<path fill="#fff" style="fill: var(--color1, #fff)" d="M85.333 4.686v12.543h-2.921l-5.537-6.683v6.683h-3.476v-12.543h2.921l5.537 6.683v-6.683h3.476z"></path>
<path fill="#ff6b09" style="fill: var(--color2, #ff6b09)" d="M55.627 10.72c-0.183-0.41-0.436-0.814-0.805-1.281-0.932-1.172-1.216-3.784-1.219-3.809-0.013-0.125-0.101-0.229-0.218-0.266-0.12-0.038-0.25-0.003-0.335 0.091-1.112 1.244-0.644 3.164-0.392 3.931 0.070 0.21 0.145 0.457 0.199 0.708 0.411 2.027-0.382 2.945-0.569 3.129-0.18 0.050-0.303 0.025-0.417-0.097-0.392-0.429-0.521-1.836-0.338-3.668 0.038-0.373 0.028-0.708-0.025-1.021-0.386-2.252-1.803-3.697-2.164-4.204-0.992-1.466-1.093-3.906-1.096-3.928-0.003-0.116-0.070-0.219-0.174-0.269-0.101-0.050-0.224-0.044-0.319 0.022-1.655 1.125-1.513 3.834-1.282 5.347 0.054 0.351 0.158 0.708 0.338 1.159 0.641 1.613-0.126 3.696-0.133 3.715s-0.013 0.034-0.016 0.053c-0.098 0.514-0.262 0.821-0.445 0.821-0.019 0-0.038-0.003-0.060-0.009-0.224-0.047-0.341-0.285-0.344-0.492-0.013-2.672-2.694-3.571-2.723-3.58-0.12-0.038-0.253-0.003-0.335 0.094-0.085 0.097-0.101 0.232-0.044 0.345 0.032 0.066 0.133 0.354 0.063 1.372-0.060 0.915-0.228 1.82-0.496 2.688-0.638 2.080-0.537 4.050-0.531 4.144 0.491 5.335 8.163 6.27 12.716 3.264 0.499-0.329 0.906-0.705 1.206-1.118 1.68-2.318 0.692-5.466-0.044-7.139zM43.956 15.817c0.009 0.172-0.123 0.319-0.297 0.329h-0.019c-0.167 0-0.306-0.128-0.316-0.294-0.028-0.457-0.022-0.937 0.013-1.457 0.013-0.172 0.164-0.301 0.338-0.291 0.174 0.012 0.306 0.163 0.294 0.335-0.035 0.495-0.041 0.946-0.013 1.378zM44.111 13.041c-0.019 0.16-0.155 0.276-0.313 0.276-0.013 0-0.025 0-0.041-0.003-0.171-0.022-0.294-0.175-0.275-0.348l0.152-1.209c0.022-0.169 0.177-0.291 0.354-0.273 0.174 0.022 0.297 0.179 0.275 0.351l-0.152 1.206z"></path>
<path fill="#ff6b09" style="fill: var(--color2, #ff6b09)" d="M53.491 4.286c-0.172-0.026-0.29-0.186-0.264-0.357 0.020-0.127 0.134-0.779 0.444-1.106 0.119-0.126 0.319-0.133 0.447-0.014s0.134 0.316 0.014 0.443c-0.131 0.139-0.243 0.536-0.28 0.773-0.027 0.169-0.186 0.288-0.36 0.261z"></path>
<path fill="#ff6b09" style="fill: var(--color2, #ff6b09)" d="M41.976 5.846c-0.060-0.233-0.211-0.617-0.355-0.743-0.131-0.114-0.144-0.312-0.029-0.442s0.314-0.144 0.446-0.029c0.34 0.296 0.518 0.933 0.55 1.058 0.043 0.168-0.059 0.338-0.227 0.381-0.172 0.043-0.342-0.061-0.385-0.225z"></path>
</symbol>
<symbol id="icon-advantages-1" viewBox="0 0 31 32">
<path fill="#ff6b09" style="fill: var(--color1, #ff6b09)" d="M7.953 23.273c1.588 0 10.776 0 12.362 0 0.061-1.41-0.040-3.749-0.907-4.862l-0.031-0.040-1.894-0.951c0.041-0.139 0.061-0.266 0.069-0.359 0.009-0.112-0.006-0.217-0.046-0.313-0.312-0.748-0.974-1.141-1.337-1.309 0.111-0.223 0.182-0.463 0.217-0.708 0.206-0.058 0.372-0.221 0.426-0.439l0.221-0.898c0.039-0.158 0.015-0.323-0.070-0.463-0.036-0.060-0.083-0.111-0.136-0.154 0.623-1.416-0.421-2.751-0.478-2.821-1.131-1.222-2.559-0.994-2.634-0.98-2.061 0.432-2.857 2.011-2.408 3.864-0.133 0.147-0.189 0.353-0.14 0.554l0.222 0.899c0.054 0.216 0.218 0.379 0.423 0.437 0.063 0.449 0.253 0.854 0.532 1.181v0.712c-2.958 1.515-1.084 0.548-3.454 1.748-0.005 0.022-1.112 1.2-0.948 4.689l0.010 0.213zM19.885 22.826h-2.035v-0.855l1.346-3.081c0.674 1.119 0.699 3.255 0.689 3.935zM17.108 17.023c-0.079 0.902-0.573 0.629-0.878 1.324-0.24-0.264-0.312-0.581-0.248-0.92 0.117-0.622-0.263-0.807-0.169-1.461l0.014-0.015v-0.002c0.008-0.009 0.083-0.098 0.105-0.126 0.805 0.351 1.193 1.003 1.177 1.2zM12.79 16.314c0.374 0.259 0.825 0.412 1.31 0.412 0.457 0 0.891-0.133 1.263-0.378 0.052 0.514 0.253 0.617 0.181 0.995-0.013 0.070-0.021 0.139-0.025 0.207l-1.386 1.562-1.771-1.997 0.428-0.223v-0.579zM12.233 14.403v-0.866c0-0.319 0-1.584 0-1.521 0.216-0.399 0.51-0.688 0.875-0.861 0.979 0.554 2.105 1.38 2.86 2.211-0.001 1.059 0.003 1.062-0.004 1.149l-0 0.006c-0.059 0.962-0.85 1.759-1.864 1.759-0.986 0-1.804-0.774-1.863-1.768-0.003-0.036-0.004-0.071-0.004-0.108zM11.957 17.332l2.177 2.454 1.461-1.647c0.033 0.096 0.080 0.187 0.134 0.275l-1.595 1.995-2.379-2.975 0.202-0.101zM16.414 14.043v-0.691c0.020-0.022 0.186-0.213 0.166-0.191 0.009 0.35 0.047-0.063-0.166 0.882zM13.798 9.416c0.088 0.005 1.276-0.181 2.215 0.833 0.037 0.046 0.801 1.031 0.494 2.108-0.105-0.479-0.288-1.093-0.578-1.387l-0.316 0.315c0.286 0.289 0.474 1.171 0.545 1.628-1.311-1.372-3.002-2.24-3.025-2.255-0.085 0.053-0.8 0.189-1.32 1.199l-0.025 0.048v0.742c-0.022 0-0.088 0.001-0.066 0.001-0.33-1.594 0.302-2.861 2.076-3.233zM11.675 13.109l0.113 0.456v0.479l-0.187-0.757c-0.027-0.113 0.056-0.156 0.074-0.178zM11.347 17.638l2.787 3.485 1.885-2.358c0.205 0.184 0.304 0.21 0.739 0.433l-0.147-0.497c-0.037-0.126 0.11-0.329 0.199-0.422 0.199-0.108 0.364-0.261 0.488-0.451l1.538 0.772-1.431 3.277v0.948h-6.543v-0.949l-1.432-3.277 1.917-0.962zM9.071 18.891l1.346 3.080v0.855h-2.035c-0.010-0.68 0.015-2.815 0.689-3.934z"></path>
<path fill="none" stroke="#ff6b09" style="stroke: var(--color1, #ff6b09)" stroke-linejoin="miter" stroke-linecap="butt" stroke-miterlimit="4" stroke-width="0.6154" d="M31.077 4.615v-4.308h-30.769v31.385h30.769v-4.308"></path>
</symbol>
<symbol id="icon-advantages-2" viewBox="0 0 31 32">
<path fill="#ff6b09" style="fill: var(--color1, #ff6b09)" d="M20.406 8.558h-7.116c-0.463 0-0.84 0.377-0.84 0.84v2.946l-5.287 2.219c-0.060 0.025-0.101 0.082-0.105 0.146s0.027 0.127 0.083 0.16l0.674 0.403v4.3c-0.345 0.079-0.603 0.387-0.603 0.756v0.414c0 0.095 0.077 0.172 0.172 0.172h1.207c0.095 0 0.172-0.077 0.172-0.172v-0.414c0-0.369-0.259-0.677-0.604-0.756v-4.094l0.533 0.319c-0.016 0.123-0.002-0.214-0.008 2.002 0 0.729 1.866 1.119 3.765 1.141v3.356c0 0.173 0.053 0.335 0.144 0.468 0.151 0.223 0.407 0.37 0.696 0.37h7.116c0.463 0 0.839-0.377 0.839-0.839 0 0.023-0.001-0.711 0-12.898 0-0.457-0.378-0.84-0.839-0.84zM8.419 20.328v0.242h-0.863v-0.242c0-0.239 0.193-0.433 0.43-0.433 0.239 0 0.433 0.194 0.433 0.433zM20.406 22.79h-7.116c-0.171 0-0.322-0.086-0.411-0.218-0.053-0.079-0.085-0.174-0.085-0.276v-1.163h8.105v1.164c0 0.27-0.225 0.494-0.494 0.494zM20.9 20.788h-8.105v-1.847c0.927-0.011 3.767-0.215 3.767-1.142-0.001-1.392 0.002-1.957-0.004-2.005l1.546-0.926c0.056-0.033 0.088-0.095 0.083-0.16s-0.045-0.121-0.105-0.146l-5.286-2.219v-1.438h8.105v9.883zM12.622 16.656c-0.955 0-2.794 0.123-3.592 0.645 0.005-1.595-0.055-1.491 0.141-1.627 0.496-0.365 1.915-0.62 3.451-0.62 0.67 0 3.595 0.184 3.595 0.803v1.444c-0.806-0.526-2.636-0.645-3.595-0.645zM12.795 9.398c0-0.273 0.222-0.495 0.495-0.495h7.116c0.273 0 0.494 0.225 0.494 0.495v1.163h-8.105v-1.163zM12.622 12.644l5.012 2.104-1.242 0.743c-0.66-0.655-2.844-0.782-3.77-0.782-0.927 0-3.111 0.127-3.77 0.782l-1.242-0.743 5.012-2.104zM9.030 17.799c0-0.279 1.234-0.799 3.592-0.799 2.36 0 3.595 0.52 3.595 0.799s-1.235 0.799-3.595 0.799c-2.359 0-3.592-0.52-3.592-0.799z"></path>
<path fill="#ff6b09" style="fill: var(--color1, #ff6b09)" d="M16.848 21.392c-0.314 0-0.569 0.255-0.569 0.569s0.255 0.57 0.569 0.57c0.314 0 0.569-0.256 0.569-0.57s-0.255-0.569-0.569-0.569zM16.848 22.186c-0.124 0-0.225-0.101-0.225-0.225s0.101-0.225 0.225-0.225c0.124 0 0.225 0.101 0.225 0.225s-0.101 0.225-0.225 0.225z"></path>
<path fill="#ff6b09" style="fill: var(--color1, #ff6b09)" d="M17.504 9.56h-1.313v0.344h1.313v-0.344z"></path>
<path fill="none" stroke="#ff6b09" style="stroke: var(--color1, #ff6b09)" stroke-linejoin="miter" stroke-linecap="butt" stroke-miterlimit="4" stroke-width="0.6154" d="M31.077 4.615v-4.308h-30.769v31.385h30.769v-4.308"></path>
</symbol>
<symbol id="icon-advantages-3" viewBox="0 0 31 32">
<path fill="#ff6b09" style="fill: var(--color1, #ff6b09)" d="M7.942 14.958c0 0.165-0.25 0.165-0.25 0 0-3.502 2.84-6.342 6.343-6.342 3.504 0 6.343 2.84 6.343 6.343 0 0.165-0.249 0.165-0.249 0 0-2.367-3.89-2.369-3.89 0 0 0.165-0.256 0.165-0.256 0 0-2.361-3.896-2.361-3.896 0 0 0.165-0.256 0.165-0.256 0 0-2.357-3.888-2.373-3.888 0zM11.853 14.039c0.067-1.363 0.281-2.584 0.593-3.517 0.249-0.741 0.563-1.304 0.919-1.62-2.674 0.292-4.839 2.319-5.323 4.949 0.921-1.328 3.047-1.222 3.811 0.189zM15.963 13.977c-0.069-1.31-0.277-2.482-0.576-3.376-0.773-2.313-1.931-2.313-2.704 0-0.299 0.894-0.506 2.066-0.576 3.376 0.831-1.412 3.026-1.412 3.857 0zM20.027 13.85c-0.482-2.629-2.647-4.657-5.323-4.949 0.358 0.316 0.671 0.879 0.919 1.62 0.311 0.933 0.526 2.155 0.593 3.517 0.768-1.418 2.9-1.502 3.811-0.189z"></path>
<path fill="#ff6b09" style="fill: var(--color1, #ff6b09)" d="M13.202 17.86v-1.288c-0.232 0.154-0.415 0.392-0.415 0.683 0 0.283 0.186 0.47 0.415 0.605zM13.452 18.26c-0.445-0.204-0.913-0.442-0.913-1.005 0-0.581 0.442-0.872 0.913-1.089v2.094z"></path>
<path fill="#ff6b09" style="fill: var(--color1, #ff6b09)" d="M14.867 19.803v1.303c0.235-0.156 0.419-0.395 0.419-0.686 0-0.286-0.189-0.479-0.419-0.617zM14.619 19.402c0.446 0.207 0.918 0.452 0.918 1.018 0 0.582-0.445 0.873-0.918 1.089v-2.107z"></path>
<path fill="#ff6b09" style="fill: var(--color1, #ff6b09)" d="M14.867 15.106c1.024 0.237 2.077 1.003 2.077 2.149 0 0.981-1.658 0.945-1.658 0 0-0.292-0.184-0.532-0.419-0.686v1.833c0.948 0.31 2.080 0.865 2.080 2.018 0 1.147-1.053 1.912-2.080 2.147-0.005 1.092-1.662 1.090-1.665-0.001-0.584-0.135-1.092-0.407-1.458-0.768-0.385-0.38-0.612-0.858-0.612-1.378 0-0.966 1.656-0.966 1.656 0 0 0.289 0.183 0.527 0.415 0.681v-1.831c-0.94-0.304-2.078-0.876-2.078-2.018 0-1.147 1.053-1.912 2.078-2.147 0.005-1.092 1.662-1.090 1.665 0.001zM13.452 15.109v0.199c-0.975 0.193-2.080 0.818-2.080 1.944 0 1.083 1.213 1.568 2.080 1.836v2.42c-0.469-0.214-0.913-0.503-0.913-1.087 0-0.638-1.159-0.638-1.159 0 0 0.451 0.201 0.867 0.539 1.199 0.43 0.425 0.951 0.627 1.533 0.743v0.201c0 0.768 1.166 0.768 1.166 0v-0.199c0.978-0.195 2.078-0.819 2.078-1.944 0-1.093-1.21-1.563-2.078-1.837v-2.418c0.47 0.214 0.918 0.503 0.918 1.090 0 0.621 1.157 0.647 1.157 0 0-1.125-1.099-1.75-2.075-1.945v-0.201c0-0.768-1.166-0.768-1.166 0z"></path>
<path fill="none" stroke="#ff6b09" style="stroke: var(--color1, #ff6b09)" stroke-linejoin="miter" stroke-linecap="butt" stroke-miterlimit="4" stroke-width="0.6154" d="M31.077 4.615v-4.308h-30.769v31.385h30.769v-4.308"></path>
</symbol>

<!-- ten zwykly hamburger nie dziala dwa ponizej z hw8 -->
<symbol id="icon-hamburger" viewBox="0 0 48 32">
<path stroke-linejoin="miter" stroke-linecap="butt" stroke-miterlimit="4" stroke-width="4.5714" d="M0 2.286h46.857"></path>
<path stroke-linejoin="miter" stroke-linecap="butt" stroke-miterlimit="4" stroke-width="4.5714" d="M0 16h46.857"></path>
<path stroke-linejoin="miter" stroke-linecap="butt" stroke-miterlimit="4" stroke-width="4.5714" d="M0 29.714h46.857"></path>
</symbol>
<symbol id="icon-menu-hamburger" viewBox="0 0 32 32">
<path d="M6.4 11.733v-2.133h19.2v2.133h-19.2zM6.4 17.067h19.2v-2.133h-19.2v2.133zM6.4 22.4h19.2v-2.133h-19.2v2.133z"></path>
</symbol>
<symbol id="icon-menu-small-hamburger" viewBox="0 0 48 32">
<path d="M0 5.333v-5.333h48v5.333h-48zM0 18.667h48v-5.333h-48v5.333zM0 32h48v-5.333h-48v5.333z"></path>
</symbol>
<symbol id="icon-modal-close" viewBox="0 0 32 32">
<path fill="none" stroke="#fff" style="stroke: var(--color1, #fff)" stroke-linejoin="miter" stroke-linecap="butt" stroke-miterlimit="4" stroke-width="3.7647" d="M1.882 29.168l27.286-27.286"></path>
<path fill="none" stroke="#fff" style="stroke: var(--color1, #fff)" stroke-linejoin="miter" stroke-linecap="butt" stroke-miterlimit="4" stroke-width="3.7647" d="M29.168 29.168l-27.286-27.286"></path>
</symbol>

</defs>
</svg>
